<svg width="3300" height="2200" viewBox="0 0 3300 2200" xmlns="http://www.w3.org/2000/svg" xmlns:xlink="http://www.w3.org/1999/xlink">
    <g id="Notes">
        <path id="artboard" fill="#ffffff" stroke="none" d="M 0 0 L 3300 0 L 3300 2200 L 0 2200 Z"/>
        <path id="path1" fill="none" stroke="#000000" stroke-width="0.5" stroke-linecap="round" stroke-linejoin="round" d="M 263 292 L 3036 292"/>
        <text id="WeightScale-Variations" xml:space="preserve" x="263" y="322" font-family="Helvetica" font-size="13" font-weight="700" fill="#000000">Weight/Scale Variations</text>
        <text id="Ultralight" xml:space="preserve" x="560" y="322" text-anchor="middle" font-family="Helvetica" font-size="13" fill="#000000">Ultralight</text>
        <text id="Thin" xml:space="preserve" x="856" y="322" text-anchor="middle" font-family="Helvetica" font-size="13" fill="#000000">Thin</text>
        <text id="Light" xml:space="preserve" x="1153.5" y="322" text-anchor="middle" font-family="Helvetica" font-size="13" fill="#000000">Light</text>
        <text id="Regular" xml:space="preserve" x="1450" y="322" text-anchor="middle" font-family="Helvetica" font-size="13" fill="#000000">Regular</text>
        <text id="Medium" xml:space="preserve" x="1746.5" y="322" text-anchor="middle" font-family="Helvetica" font-size="13" fill="#000000">Medium</text>
        <text id="Semibold" xml:space="preserve" x="2043.5" y="322" text-anchor="middle" font-family="Helvetica" font-size="13" fill="#000000">Semibold</text>
        <text id="Bold" xml:space="preserve" x="2339.5" y="322" text-anchor="middle" font-family="Helvetica" font-size="13" fill="#000000">Bold</text>
        <text id="Heavy" xml:space="preserve" x="2636.5" y="322" text-anchor="middle" font-family="Helvetica" font-size="13" fill="#000000">Heavy</text>
        <text id="Black" xml:space="preserve" x="2933" y="322" text-anchor="middle" font-family="Helvetica" font-size="13" fill="#000000">Black</text>
        <path id="path2" fill="none" stroke="#000000" stroke-width="0.5" stroke-linecap="round" stroke-linejoin="round" d="M 263 1903 L 3036 1903"/>
        <g id="g1">
            <path id="path3" fill="#000000" stroke="none" d="M 272.248047 1933.830078 C 273.328766 1933.830078 274.34436 1933.625 275.294891 1933.214844 C 276.245422 1932.804688 277.083679 1932.234985 277.809601 1931.505859 C 278.535461 1930.776733 279.105133 1929.93689 279.518616 1928.986328 C 279.932007 1928.035767 280.138702 1927.023438 280.138702 1925.949219 C 280.138702 1924.875 279.932007 1923.862671 279.518616 1922.912109 C 279.105133 1921.961548 278.533844 1921.121704 277.804688 1920.392578 C 277.0755 1919.66333 276.235657 1919.09375 275.285187 1918.683594 C 274.334656 1918.273438 273.319031 1918.068359 272.238281 1918.068359 C 271.164063 1918.068359 270.151703 1918.273438 269.201172 1918.683594 C 268.250641 1919.09375 267.414063 1919.66333 266.691406 1920.392578 C 265.96875 1921.121704 265.400726 1921.961548 264.987305 1922.912109 C 264.573883 1923.862671 264.367188 1924.875 264.367188 1925.949219 C 264.367188 1927.023438 264.573883 1928.035767 264.987305 1928.986328 C 265.400726 1929.93689 265.970367 1930.776733 266.696289 1931.505859 C 267.422211 1932.234985 268.260406 1932.804688 269.210938 1933.214844 C 270.161469 1933.625 271.173828 1933.830078 272.248047 1933.830078 Z M 272.248047 1932.345703 C 271.36264 1932.345703 270.53418 1932.181274 269.762695 1931.852539 C 268.991211 1931.523804 268.314117 1931.066406 267.731445 1930.480469 C 267.148773 1929.894531 266.693024 1929.214233 266.364258 1928.439453 C 266.035492 1927.664673 265.871094 1926.834595 265.871094 1925.949219 C 265.871094 1925.063843 266.033844 1924.233765 266.359375 1923.458984 C 266.684906 1922.684326 267.139008 1922.003906 267.72168 1921.417969 C 268.304352 1920.832031 268.981445 1920.374756 269.75293 1920.045898 C 270.524414 1919.717041 271.352875 1919.552734 272.238281 1919.552734 C 273.130219 1919.552734 273.961945 1919.717041 274.733398 1920.045898 C 275.504852 1920.374756 276.183563 1920.832031 276.769501 1921.417969 C 277.355438 1922.003906 277.814423 1922.684326 278.146484 1923.458984 C 278.478485 1924.233765 278.644501 1925.063843 278.644501 1925.949219 C 278.644501 1926.834595 278.480133 1927.664673 278.151398 1928.439453 C 277.822601 1929.214233 277.366882 1929.894531 276.78421 1930.480469 C 276.201538 1931.066406 275.522797 1931.523804 274.747986 1931.852539 C 273.973267 1932.181274 273.139954 1932.345703 272.248047 1932.345703 Z M 268.654297 1925.949219 C 268.654297 1926.164063 268.722656 1926.338257 268.859375 1926.47168 C 268.996094 1926.605103 269.178375 1926.671875 269.40625 1926.671875 L 271.515625 1926.671875 L 271.515625 1928.791016 C 271.515625 1929.005859 271.580719 1929.183228 271.710938 1929.323242 C 271.841156 1929.463257 272.016937 1929.533203 272.238281 1929.533203 C 272.453125 1929.533203 272.630524 1929.463257 272.770508 1929.323242 C 272.910492 1929.183228 272.980469 1929.005859 272.980469 1928.791016 L 272.980469 1926.671875 L 275.089813 1926.671875 C 275.311218 1926.671875 275.490265 1926.605103 275.627014 1926.47168 C 275.763672 1926.338257 275.832001 1926.164063 275.832001 1925.949219 C 275.832001 1925.727905 275.763672 1925.548828 275.627014 1925.412109 C 275.490265 1925.275391 275.311218 1925.207031 275.089813 1925.207031 L 272.980469 1925.207031 L 272.980469 1923.097656 C 272.980469 1922.876221 272.910492 1922.695557 272.770508 1922.555664 C 272.630524 1922.415771 272.453125 1922.345703 272.238281 1922.345703 C 272.016937 1922.345703 271.841156 1922.415771 271.710938 1922.555664 C 271.580719 1922.695557 271.515625 1922.876221 271.515625 1923.097656 L 271.515625 1925.207031 L 269.40625 1925.207031 C 269.178375 1925.207031 268.996094 1925.275391 268.859375 1925.412109 C 268.722656 1925.548828 268.654297 1925.727905 268.654297 1925.949219 Z"/>
        </g>
        <g id="g2">
            <path id="path4" fill="#000000" stroke="none" d="M 293.575989 1935.910156 C 294.936676 1935.910156 296.21759 1935.64978 297.418793 1935.128906 C 298.619934 1934.608032 299.679504 1933.888672 300.597504 1932.970703 C 301.515442 1932.052734 302.234833 1930.993164 302.755707 1929.791992 C 303.276489 1928.59082 303.536896 1927.309937 303.536896 1925.949219 C 303.536896 1924.588501 303.276489 1923.307617 302.755707 1922.106445 C 302.234833 1920.905273 301.515442 1919.845703 300.597504 1918.927734 C 299.679504 1918.009766 298.618286 1917.290405 297.41391 1916.769531 C 296.209442 1916.248779 294.92688 1915.988281 293.566193 1915.988281 C 292.205536 1915.988281 290.924622 1916.248779 289.72345 1916.769531 C 288.522278 1917.290405 287.464325 1918.009766 286.549622 1918.927734 C 285.634918 1919.845703 284.917145 1920.905273 284.396301 1922.106445 C 283.875458 1923.307617 283.615051 1924.588501 283.615051 1925.949219 C 283.615051 1927.309937 283.875458 1928.59082 284.396301 1929.791992 C 284.917145 1930.993164 285.636536 1932.052734 286.554504 1932.970703 C 287.472473 1933.888672 288.532043 1934.608032 289.733215 1935.128906 C 290.934387 1935.64978 292.215302 1935.910156 293.575989 1935.910156 Z M 293.575989 1934.25 C 292.423645 1934.25 291.346161 1934.035156 290.343567 1933.605469 C 289.340973 1933.175781 288.460419 1932.581665 287.701965 1931.823242 C 286.943512 1931.064819 286.351044 1930.184204 285.924622 1929.181641 C 285.498199 1928.179077 285.284973 1927.101563 285.284973 1925.949219 C 285.284973 1924.796875 285.498199 1923.71936 285.924622 1922.716797 C 286.351044 1921.714233 286.941864 1920.832031 287.697083 1920.070313 C 288.452301 1919.308594 289.331207 1918.714478 290.333801 1918.288086 C 291.336395 1917.861572 292.413879 1917.648438 293.566193 1917.648438 C 294.718536 1917.648438 295.796021 1917.861572 296.798615 1918.288086 C 297.801208 1918.714478 298.68335 1919.308594 299.445099 1920.070313 C 300.206848 1920.832031 300.802551 1921.714233 301.232208 1922.716797 C 301.661926 1923.71936 301.876801 1924.796875 301.876801 1925.949219 C 301.876801 1927.101563 301.663574 1928.179077 301.237091 1929.181641 C 300.810699 1930.184204 300.218262 1931.064819 299.459808 1931.823242 C 298.701355 1932.581665 297.819183 1933.175781 296.813293 1933.605469 C 295.807434 1934.035156 294.728333 1934.25 293.575989 1934.25 Z M 289.044739 1925.949219 C 289.044739 1926.183594 289.122864 1926.37561 289.279114 1926.525391 C 289.435364 1926.675171 289.637177 1926.75 289.884583 1926.75 L 292.755707 1926.75 L 292.755707 1929.630859 C 292.755707 1929.878296 292.830566 1930.078491 292.980286 1930.231445 C 293.130035 1930.384399 293.322083 1930.460938 293.556488 1930.460938 C 293.803833 1930.460938 294.003998 1930.384399 294.157013 1930.231445 C 294.309998 1930.078491 294.386505 1929.878296 294.386505 1929.630859 L 294.386505 1926.75 L 297.267395 1926.75 C 297.514801 1926.75 297.714996 1926.675171 297.868011 1926.525391 C 298.020996 1926.37561 298.097504 1926.183594 298.097504 1925.949219 C 298.097504 1925.701782 298.020996 1925.501587 297.868011 1925.348633 C 297.714996 1925.195679 297.514801 1925.119141 297.267395 1925.119141 L 294.386505 1925.119141 L 294.386505 1922.248047 C 294.386505 1921.994141 294.309998 1921.790649 294.157013 1921.637695 C 294.003998 1921.484741 293.803833 1921.408203 293.556488 1921.408203 C 293.322083 1921.408203 293.130035 1921.486328 292.980286 1921.642578 C 292.830566 1921.798828 292.755707 1922.000732 292.755707 1922.248047 L 292.755707 1925.119141 L 289.884583 1925.119141 C 289.630676 1925.119141 289.427216 1925.195679 289.274231 1925.348633 C 289.121246 1925.501587 289.044739 1925.701782 289.044739 1925.949219 Z"/>
        </g>
        <g id="g3">
            <path id="path5" fill="#000000" stroke="none" d="M 320.616699 1938.664063 C 322.009918 1938.664063 323.339661 1938.447632 324.605988 1938.014648 C 325.872253 1937.581665 327.036011 1936.974609 328.097198 1936.193359 C 329.158386 1935.412109 330.081238 1934.490845 330.865692 1933.429688 C 331.650238 1932.36853 332.258972 1931.203125 332.691895 1929.933594 C 333.124847 1928.664063 333.341309 1927.335938 333.341309 1925.949219 C 333.341309 1924.55603 333.124847 1923.226318 332.691895 1921.959961 C 332.258972 1920.693604 331.650238 1919.529907 330.865692 1918.46875 C 330.081238 1917.407593 329.158386 1916.484741 328.097198 1915.700195 C 327.036011 1914.915649 325.870636 1914.306885 324.601105 1913.874023 C 323.331573 1913.44104 322.000183 1913.224609 320.606903 1913.224609 C 319.213684 1913.224609 317.883972 1913.44104 316.617706 1913.874023 C 315.35141 1914.306885 314.189301 1914.915649 313.131348 1915.700195 C 312.073395 1916.484741 311.152191 1917.407593 310.367676 1918.46875 C 309.58316 1919.529907 308.976074 1920.693604 308.546387 1921.959961 C 308.116699 1923.226318 307.901855 1924.55603 307.901855 1925.949219 C 307.901855 1927.335938 308.118317 1928.664063 308.55127 1929.933594 C 308.984222 1931.203125 309.591309 1932.36853 310.372559 1933.429688 C 311.153809 1934.490845 312.075043 1935.412109 313.13623 1936.193359 C 314.197418 1936.974609 315.361145 1937.581665 316.627411 1938.014648 C 317.893738 1938.447632 319.22348 1938.664063 320.616699 1938.664063 Z M 320.616699 1936.847656 C 319.412292 1936.847656 318.264832 1936.663696 317.174286 1936.295898 C 316.083801 1935.928101 315.08609 1935.412109 314.181152 1934.748047 C 313.276215 1934.083984 312.490082 1933.297852 311.822754 1932.389648 C 311.155426 1931.481445 310.639496 1930.482056 310.274902 1929.391602 C 309.910309 1928.301147 309.728027 1927.153687 309.728027 1925.949219 C 309.728027 1924.738281 309.910309 1923.587646 310.274902 1922.49707 C 310.639496 1921.406494 311.153809 1920.407227 311.817871 1919.499023 C 312.481934 1918.59082 313.266449 1917.804688 314.171387 1917.140625 C 315.076324 1916.476563 316.074066 1915.962158 317.164612 1915.597656 C 318.255066 1915.233154 319.402496 1915.050781 320.606903 1915.050781 C 321.817841 1915.050781 322.968567 1915.233154 324.059113 1915.597656 C 325.149567 1915.962158 326.148895 1916.476563 327.057098 1917.140625 C 327.965302 1917.804688 328.751434 1918.59082 329.415497 1919.499023 C 330.079559 1920.407227 330.59552 1921.406494 330.963409 1922.49707 C 331.331207 1923.587646 331.515106 1924.738281 331.515106 1925.949219 C 331.521637 1927.153687 331.34259 1928.301147 330.977997 1929.391602 C 330.613464 1930.482056 330.097534 1931.481445 329.430206 1932.389648 C 328.762878 1933.297852 327.975098 1934.083984 327.066895 1934.748047 C 326.158691 1935.412109 325.159363 1935.928101 324.068909 1936.295898 C 322.978363 1936.663696 321.827637 1936.847656 320.616699 1936.847656 Z M 314.845215 1925.949219 C 314.845215 1926.203125 314.931488 1926.413086 315.104004 1926.579102 C 315.27652 1926.745117 315.496277 1926.828125 315.763214 1926.828125 L 319.708496 1926.828125 L 319.708496 1930.783203 C 319.708496 1931.050171 319.791504 1931.269897 319.957489 1931.442383 C 320.123505 1931.614868 320.336731 1931.701172 320.597198 1931.701172 C 320.864136 1931.701172 321.083862 1931.616577 321.256409 1931.447266 C 321.428864 1931.277954 321.515106 1931.056641 321.515106 1930.783203 L 321.515106 1926.828125 L 325.470215 1926.828125 C 325.737152 1926.828125 325.955231 1926.745117 326.124512 1926.579102 C 326.293762 1926.413086 326.378387 1926.203125 326.378387 1925.949219 C 326.378387 1925.675781 326.293762 1925.454468 326.124512 1925.285156 C 325.955231 1925.115845 325.737152 1925.03125 325.470215 1925.03125 L 321.515106 1925.03125 L 321.515106 1921.085938 C 321.515106 1920.8125 321.428864 1920.5896 321.256409 1920.416992 C 321.083862 1920.244507 320.864136 1920.158203 320.597198 1920.158203 C 320.336731 1920.158203 320.123505 1920.244507 319.957489 1920.416992 C 319.791504 1920.5896 319.708496 1920.8125 319.708496 1921.085938 L 319.708496 1925.03125 L 315.763214 1925.03125 C 315.489746 1925.03125 315.268402 1925.115845 315.099121 1925.285156 C 314.92984 1925.454468 314.845215 1925.675781 314.845215 1925.949219 Z"/>
        </g>
        <text id="Design-Variations" xml:space="preserve" x="263" y="1953" font-family="Helvetica" font-size="13" font-weight="700" fill="#000000">Design Variations</text>
        <text id="Symbols-are-supported-in-up-to-nine-weights-and-three-scales" xml:space="preserve" x="263" y="1971" font-family="Helvetica" font-size="13" fill="#000000">Symbols are supported in up to nine weights and three scales.</text>
        <text id="For-optimal-layout-with-text-and-other-symbols-vertically-align" xml:space="preserve" x="263" y="1989" font-family="Helvetica" font-size="13" fill="#000000">For optimal layout with text and other symbols, vertically align</text>
        <text id="symbols-with-the-adjacent-text" xml:space="preserve" x="263" y="2007" font-family="Helvetica" font-size="13" fill="#000000">symbols with the adjacent text.</text>
        <path id="path6" fill="none" stroke="#00aeef" stroke-width="0.5" stroke-linecap="round" stroke-linejoin="round" d="M 776 1919 L 776 1933"/>
        <g id="g4">
            <path id="path7" fill="#000000" stroke="none" d="M 779.310547 1933.15625 C 779.570984 1933.15625 779.772766 1933.100952 779.916016 1932.990234 C 780.059265 1932.879517 780.176453 1932.6875 780.267578 1932.414063 L 781.527344 1928.966797 L 787.289124 1928.966797 L 788.548828 1932.414063 C 788.639954 1932.6875 788.757141 1932.879517 788.900391 1932.990234 C 789.043579 1933.100952 789.242126 1933.15625 789.496094 1933.15625 C 789.756531 1933.15625 789.963196 1933.084595 790.116211 1932.941406 C 790.269226 1932.798218 790.345703 1932.602905 790.345703 1932.355469 C 790.345703 1932.205688 790.309875 1932.029907 790.238281 1931.828125 L 785.658203 1919.630859 C 785.541016 1919.331299 785.381531 1919.106689 785.179688 1918.957031 C 784.977844 1918.807251 784.720703 1918.732422 784.408203 1918.732422 C 783.802734 1918.732422 783.392578 1919.028564 783.177734 1919.621094 L 778.597656 1931.837891 C 778.526062 1932.039673 778.490234 1932.215454 778.490234 1932.365234 C 778.490234 1932.612671 778.563477 1932.806274 778.709961 1932.946289 C 778.856445 1933.086304 779.056641 1933.15625 779.310547 1933.15625 Z M 782.005859 1927.482422 L 784.378906 1920.910156 L 784.427734 1920.910156 L 786.800781 1927.482422 Z"/>
        </g>
        <path id="path8" fill="none" stroke="#00aeef" stroke-width="0.5" stroke-linecap="round" stroke-linejoin="round" d="M 793.197021 1919 L 793.197021 1933"/>
        <text id="Margins" xml:space="preserve" x="776" y="1953" font-family="Helvetica" font-size="13" font-weight="700" fill="#000000">Margins</text>
        <text id="Leading-and-trailing-margins-on-the-left-and-right-side-of-each-symbol" xml:space="preserve" x="776" y="1971" font-family="Helvetica" font-size="13" fill="#000000">Leading and trailing margins on the left and right side of each symbol</text>
        <text id="can-be-adjusted-by-modifying-the-x-location-of-the-margin-guidelines" xml:space="preserve" x="776" y="1989" font-family="Helvetica" font-size="13" fill="#000000">can be adjusted by modifying the x-location of the margin guidelines.</text>
        <text id="Modifications-are-automatically-applied-proportionally-to-all" xml:space="preserve" x="776" y="2007" font-family="Helvetica" font-size="13" fill="#000000">Modifications are automatically applied proportionally to all</text>
        <text id="scales-and-weights" xml:space="preserve" x="776" y="2025" font-family="Helvetica" font-size="13" fill="#000000">scales and weights.</text>
        <g id="g5">
            <path id="path9" fill="#000000" stroke="none" d="M 1291.841797 1934.865234 L 1293.541016 1936.574219 C 1293.970703 1937.010376 1294.424805 1937.21228 1294.90332 1937.179688 C 1295.381836 1937.147095 1295.852173 1936.873657 1296.314453 1936.359375 L 1307.007813 1924.572266 L 1306.041016 1923.595703 L 1295.425781 1935.275391 C 1295.25 1935.477173 1295.072632 1935.591187 1294.893555 1935.617188 C 1294.714478 1935.643188 1294.507813 1935.539063 1294.273438 1935.304688 L 1293.101563 1934.142578 C 1292.867188 1933.908203 1292.764648 1933.701538 1292.793945 1933.522461 C 1292.823242 1933.343384 1292.938843 1933.16272 1293.140625 1932.980469 L 1304.615234 1922.179688 L 1303.638672 1921.212891 L 1292.046875 1932.101563 C 1291.552124 1932.557251 1291.286743 1933.022827 1291.250977 1933.498047 C 1291.21521 1933.973267 1291.412109 1934.429077 1291.841797 1934.865234 Z M 1298.257813 1916.671875 C 1298.049438 1916.873779 1297.932251 1917.104736 1297.90625 1917.365234 C 1297.880249 1917.625732 1297.925781 1917.853516 1298.042969 1918.048828 C 1298.160156 1918.231201 1298.331055 1918.36792 1298.555664 1918.458984 C 1298.780273 1918.550171 1299.055298 1918.556641 1299.380859 1918.478516 C 1300.109985 1918.309204 1300.848999 1918.239258 1301.597656 1918.268555 C 1302.346313 1918.297852 1303.078735 1918.546875 1303.794922 1919.015625 L 1303.208984 1920.470703 C 1303.039673 1920.887329 1302.992554 1921.250366 1303.067383 1921.55957 C 1303.142212 1921.868774 1303.31311 1922.160156 1303.580078 1922.433594 L 1305.875 1924.748047 C 1306.115845 1924.995483 1306.35022 1925.138672 1306.578125 1925.177734 C 1306.80603 1925.216797 1307.059937 1925.210327 1307.339844 1925.158203 L 1308.404297 1924.962891 L 1309.068359 1925.636719 L 1309.029297 1926.193359 C 1309.009766 1926.440796 1309.040649 1926.668579 1309.12207 1926.876953 C 1309.203491 1927.085327 1309.364624 1927.309937 1309.605469 1927.550781 L 1310.367188 1928.292969 C 1310.608032 1928.533813 1310.870117 1928.65918 1311.15332 1928.668945 C 1311.436523 1928.678711 1311.695313 1928.566406 1311.929688 1928.332031 L 1314.839844 1925.412109 C 1315.074219 1925.177734 1315.18811 1924.922241 1315.181641 1924.645508 C 1315.175171 1924.368774 1315.051392 1924.109985 1314.810547 1923.869141 L 1314.039063 1923.107422 C 1313.804688 1922.866577 1313.584961 1922.702148 1313.379883 1922.614258 C 1313.174805 1922.526367 1312.951782 1922.492188 1312.710938 1922.511719 L 1312.134766 1922.560547 L 1311.490234 1921.925781 L 1311.734375 1920.802734 C 1311.799438 1920.522705 1311.786499 1920.260742 1311.695313 1920.016602 C 1311.604126 1919.772461 1311.412109 1919.503906 1311.119141 1919.210938 L 1308.921875 1917.023438 C 1308.088501 1916.196533 1307.201538 1915.576538 1306.260742 1915.163086 C 1305.319946 1914.749756 1304.372681 1914.534912 1303.418945 1914.518555 C 1302.46521 1914.502319 1301.547241 1914.676392 1300.665039 1915.041016 C 1299.782837 1915.40564 1298.980469 1915.949219 1298.257813 1916.671875 Z M 1299.751953 1917.042969 C 1300.357422 1916.600342 1301.006836 1916.284546 1301.700195 1916.095703 C 1302.393555 1915.90686 1303.095093 1915.84668 1303.804688 1915.915039 C 1304.514282 1915.983398 1305.202759 1916.173828 1305.870117 1916.486328 C 1306.537476 1916.798828 1307.147827 1917.235107 1307.701172 1917.794922 L 1310.132813 1920.207031 C 1310.25 1920.324219 1310.323242 1920.43811 1310.352539 1920.548828 C 1310.381836 1920.659424 1310.376953 1920.799438 1310.337891 1920.96875 L 1310.015625 1922.453125 L 1311.519531 1923.9375 L 1312.505859 1923.878906 C 1312.629517 1923.872437 1312.723999 1923.880493 1312.789063 1923.90332 C 1312.854126 1923.926147 1312.935547 1923.986328 1313.033203 1924.083984 L 1313.609375 1924.660156 L 1311.167969 1927.101563 L 1310.591797 1926.525391 C 1310.494141 1926.427734 1310.432251 1926.346313 1310.40625 1926.28125 C 1310.380249 1926.216187 1310.370483 1926.11853 1310.376953 1925.988281 L 1310.445313 1925.011719 L 1308.951172 1923.527344 L 1307.427734 1923.78125 C 1307.265015 1923.813843 1307.136353 1923.818726 1307.041992 1923.795898 C 1306.947632 1923.773071 1306.838501 1923.703125 1306.714844 1923.585938 L 1304.712891 1921.583984 C 1304.582642 1921.466797 1304.509399 1921.354492 1304.493164 1921.24707 C 1304.476929 1921.139648 1304.507813 1920.994751 1304.585938 1920.8125 L 1305.464844 1918.722656 C 1304.683594 1917.99353 1303.804688 1917.488892 1302.828125 1917.208984 C 1301.851563 1916.929077 1300.855469 1916.938843 1299.839844 1917.238281 C 1299.761719 1917.257813 1299.711304 1917.243164 1299.688477 1917.194336 C 1299.665649 1917.145508 1299.68689 1917.095093 1299.751953 1917.042969 Z"/>
        </g>
        <text id="Exporting" xml:space="preserve" x="1289" y="1953" font-family="Helvetica" font-size="13" font-weight="700" fill="#000000">Exporting</text>
        <text id="Symbols-should-be-outlined-when-exporting-to-ensure-the" xml:space="preserve" x="1289" y="1971" font-family="Helvetica" font-size="13" fill="#000000">Symbols should be outlined when exporting to ensure the</text>
        <text id="design-is-preserved-when-submitting-to-Xcode" xml:space="preserve" x="1289" y="1989" font-family="Helvetica" font-size="13" fill="#000000">design is preserved when submitting to Xcode.</text>
        <text id="template-version" xml:space="preserve" x="3036" y="1933" text-anchor="end" font-family="Helvetica" font-size="13" fill="#000000">Template v.3.0</text>
        <text id="Requires-Xcode-13-or-greater" xml:space="preserve" x="3036" y="1951" text-anchor="end" font-family="Helvetica" font-size="13" fill="#000000">Requires Xcode 13 or greater</text>
        <text id="Generated-from-square" xml:space="preserve" x="3036" y="1969" text-anchor="end" font-family="Helvetica" font-size="13" fill="#000000">Generated from square</text>
        <text id="Typeset-at-100-points" xml:space="preserve" x="3036" y="1987" text-anchor="end" font-family="Helvetica" font-size="13" fill="#000000">Typeset at 100 points</text>
        <text id="Small" xml:space="preserve" x="263" y="726" font-family="Helvetica" font-size="13" fill="#000000">Small</text>
        <text id="text1" xml:space="preserve" x="263" y="1156" font-family="Helvetica" font-size="13" fill="#000000">Medium</text>
        <text id="Large" xml:space="preserve" x="263" y="1586" font-family="Helvetica" font-size="13" fill="#000000">Large</text>
    </g>
    <g id="Guides">
        <g id="H-reference">
            <path id="path10" fill="#27aae1" stroke="none" d="M 339.993347 696 L 342.637695 696 L 368.328186 628.867432 L 369.03009 628.867432 L 369.03009 625.541016 L 367.122711 625.541016 Z M 350.688202 671.520264 L 385.981812 671.520264 L 385.23111 669.27124 L 351.438202 669.27124 Z M 394.119293 696 L 396.763702 696 L 369.638092 625.541016 L 368.432709 625.541016 L 368.432709 628.867432 Z"/>
        </g>
        <path id="Baseline-S" fill="none" stroke="#27aae1" stroke-width="0.5" stroke-linecap="round" stroke-linejoin="round" d="M 263 696 L 3036 696"/>
        <path id="Capline-S" fill="none" stroke="#27aae1" stroke-width="0.5" stroke-linecap="round" stroke-linejoin="round" d="M 263 625.541016 L 3036 625.541016"/>
        <g id="g6">
            <path id="path11" fill="#27aae1" stroke="none" d="M 339.993347 1126 L 342.637695 1126 L 368.328186 1058.867432 L 369.03009 1058.867432 L 369.03009 1055.541016 L 367.122711 1055.541016 Z M 350.688202 1101.520264 L 385.981812 1101.520264 L 385.23111 1099.27124 L 351.438202 1099.27124 Z M 394.119293 1126 L 396.763702 1126 L 369.638092 1055.541016 L 368.432709 1055.541016 L 368.432709 1058.867432 Z"/>
        </g>
        <path id="Baseline-M" fill="none" stroke="#27aae1" stroke-width="0.5" stroke-linecap="round" stroke-linejoin="round" d="M 263 1126 L 3036 1126"/>
        <path id="Capline-M" fill="none" stroke="#27aae1" stroke-width="0.5" stroke-linecap="round" stroke-linejoin="round" d="M 263 1055.540039 L 3036 1055.540039"/>
        <g id="g7">
            <path id="path12" fill="#27aae1" stroke="none" d="M 339.993347 1556 L 342.637695 1556 L 368.328186 1488.867432 L 369.03009 1488.867432 L 369.03009 1485.541016 L 367.122711 1485.541016 Z M 350.688202 1531.520264 L 385.981812 1531.520264 L 385.23111 1529.27124 L 351.438202 1529.27124 Z M 394.119293 1556 L 396.763702 1556 L 369.638092 1485.541016 L 368.432709 1485.541016 L 368.432709 1488.867432 Z"/>
        </g>
        <path id="Baseline-L" fill="none" stroke="#27aae1" stroke-width="0.5" stroke-linecap="round" stroke-linejoin="round" d="M 263 1556 L 3036 1556"/>
        <path id="Capline-L" fill="none" stroke="#27aae1" stroke-width="0.5" stroke-linecap="round" stroke-linejoin="round" d="M 263 1485.540039 L 3036 1485.540039"/>
        <path id="left-margin-Ultralight-S" fill="none" stroke="#00aeef" stroke-width="0.5" stroke-linecap="round" stroke-linejoin="round" d="M 516.349976 600.784912 L 516.349976 720.120972"/>
        <path id="right-margin-Ultralight-S" fill="none" stroke="#00aeef" stroke-width="0.5" stroke-linecap="round" stroke-linejoin="round" d="M 603.072998 600.784912 L 603.072998 720.120972"/>
        <path id="left-margin-Regular-S" fill="none" stroke="#00aeef" stroke-width="0.5" stroke-linecap="round" stroke-linejoin="round" d="M 1404.51001 600.784912 L 1404.51001 720.120972"/>
        <path id="right-margin-Regular-S" fill="none" stroke="#00aeef" stroke-width="0.5" stroke-linecap="round" stroke-linejoin="round" d="M 1495.180054 600.784912 L 1495.180054 720.120972"/>
        <path id="left-margin-Black-S" fill="none" stroke="#00aeef" stroke-width="0.5" stroke-linecap="round" stroke-linejoin="round" d="M 2885.5 600.784912 L 2885.5 720.120972"/>
        <path id="right-margin-Black-S" fill="none" stroke="#00aeef" stroke-width="0.5" stroke-linecap="round" stroke-linejoin="round" d="M 2981.300049 600.784912 L 2981.300049 720.120972"/>
    </g>
    <g id="Symbols">
        <g id="Black-S">
            <path id="path13" fill="#000000" stroke="none" d="M 2964.492676 606.577759 C 2963.897705 606.648682 2963.365723 606.95874 2963.001709 607.429688 L 2956.32666 615.808716 C 2955.030762 614.184692 2953.068604 613.110718 2950.858643 613.110718 L 2941.769775 613.110718 C 2938.786621 613.110718 2936.239746 615.062744 2935.236572 617.725708 L 2913.222656 617.725708 C 2909.530762 612.329712 2903.325684 608.778687 2896.322754 608.778687 C 2885.058594 608.778687 2875.871582 617.965698 2875.871582 629.229736 C 2875.871582 636.232666 2879.422607 642.437744 2884.818604 646.129761 C 2884.845703 646.147705 2909.388672 692.712646 2909.388672 692.712646 L 2891.493652 692.712646 C 2887.747559 692.712646 2884.818604 695.943726 2884.818604 699.671753 L 2884.818604 713.305664 C 2884.80957 713.944702 2885.067627 714.56665 2885.520752 715.018677 C 2885.972656 715.47168 2886.594727 715.729736 2887.233643 715.720703 L 2964.492676 715.720703 C 2965.131592 715.729736 2965.752686 715.47168 2966.205566 715.018677 C 2966.658691 714.56665 2966.915771 713.944702 2966.906738 713.305664 L 2966.906738 699.671753 C 2966.906738 695.943726 2963.977539 692.712646 2960.231689 692.712646 L 2943.828613 692.712646 L 2914.430664 640.733765 L 2935.236572 640.733765 C 2936.239746 643.396729 2938.786621 645.348755 2941.769775 645.348755 L 2950.858643 645.348755 C 2953.068604 645.348755 2955.030762 644.274658 2956.32666 642.650757 L 2963.001709 651.029663 C 2963.667725 651.864746 2964.82959 652.10376 2965.770752 651.597656 L 2988.281738 639.312744 C 2989.22168 638.807739 2989.656738 637.706665 2989.328613 636.694702 C 2988.991699 635.673706 2987.98877 635.052734 2986.931641 635.194702 C 2986.656738 635.238647 2986.390625 635.33667 2986.150635 635.47876 L 2965.344727 646.911743 L 2957.888672 637.466675 L 2957.888672 621.063721 L 2965.344727 611.618652 L 2986.150635 622.980713 C 2986.84375 623.45166 2987.739746 623.486694 2988.467773 623.078735 C 2989.195557 622.669678 2989.630615 621.888672 2989.585693 621.054688 C 2989.550537 620.220703 2989.044678 619.483765 2988.281738 619.146729 L 2965.770752 606.861694 C 2965.380615 606.639648 2964.936768 606.541748 2964.492676 606.577759 Z M 2896.322754 613.32373 C 2905.411621 613.32373 2912.22876 620.140747 2912.22876 629.229736 C 2912.22876 638.318726 2905.411621 645.135742 2896.322754 645.135742 C 2887.233643 645.135742 2880.416748 638.318726 2880.416748 629.229736 C 2880.416748 620.140747 2887.233643 613.32373 2896.322754 613.32373 Z M 2941.769775 618.080688 L 2950.858643 618.080688 C 2952.021729 618.080688 2952.917725 618.977661 2952.917725 620.140747 L 2952.917725 638.318726 C 2952.917725 639.481689 2952.021729 640.378662 2950.858643 640.378662 L 2941.769775 640.378662 C 2940.606689 640.378662 2939.709717 639.481689 2939.709717 638.318726 L 2939.709717 620.140747 C 2939.709717 618.977661 2940.606689 618.080688 2941.769775 618.080688 Z M 2915.637695 622.554688 L 2934.739746 622.554688 L 2934.739746 635.904663 L 2915.637695 635.904663 C 2916.365723 633.800659 2916.773682 631.572754 2916.773682 629.229736 C 2916.773682 626.886719 2916.365723 624.658691 2915.637695 622.554688 Z M 2910.808594 643.57373 L 2938.57373 692.712646 L 2914.430664 692.712646 L 2891.422607 649.041748 C 2893.002686 649.431763 2894.627686 649.680664 2896.322754 649.680664 C 2901.994629 649.680664 2907.098633 647.319702 2910.808594 643.57373 Z M 2891.493652 697.541748 L 2960.231689 697.541748 C 2961.217773 697.541748 2962.078613 698.393677 2962.078613 699.671753 L 2962.078613 710.891724 L 2889.647705 710.891724 L 2889.647705 699.671753 C 2889.647705 698.393677 2890.508545 697.541748 2891.493652 697.541748 Z"/>
        </g>
        <g id="Regular-S">
            <path id="path14" fill="#000000" stroke="none" d="M 1474.080566 619.310547 C 1473.619507 619.365601 1473.20752 619.606567 1472.924561 619.971558 L 1467.750488 626.466553 C 1466.745483 625.20752 1465.225464 624.374512 1463.511475 624.374512 L 1456.465576 624.374512 C 1454.154541 624.374512 1452.179565 625.88855 1451.401489 627.952515 L 1434.337524 627.952515 C 1431.474487 623.769531 1426.664551 621.016602 1421.235474 621.016602 C 1412.504517 621.016602 1405.382568 628.13855 1405.382568 636.870605 C 1405.382568 642.299561 1408.134521 647.109497 1412.318481 649.971558 C 1412.339478 649.985596 1431.364502 686.08252 1431.364502 686.08252 L 1417.492554 686.08252 C 1414.589478 686.08252 1412.318481 688.586548 1412.318481 691.476563 L 1412.318481 702.045532 C 1412.311523 702.541504 1412.511475 703.02356 1412.861572 703.373535 C 1413.212524 703.724487 1413.69458 703.924561 1414.189575 703.91748 L 1474.080566 703.91748 C 1474.576538 703.924561 1475.058472 703.724487 1475.408569 703.373535 C 1475.759521 703.02356 1475.959473 702.541504 1475.952515 702.045532 L 1475.952515 691.476563 C 1475.952515 688.586548 1473.681519 686.08252 1470.778564 686.08252 L 1458.0625 686.08252 L 1435.272583 645.788574 L 1451.401489 645.788574 C 1452.179565 647.852539 1454.154541 649.366577 1456.465576 649.366577 L 1463.511475 649.366577 C 1465.225464 649.366577 1466.745483 648.533569 1467.750488 647.274536 L 1472.924561 653.769531 C 1473.441528 654.416504 1474.342529 654.602539 1475.071533 654.210571 L 1492.521484 644.6875 C 1493.251587 644.294556 1493.588501 643.441528 1493.333496 642.657593 C 1493.07251 641.865601 1492.294556 641.384521 1491.475586 641.494507 C 1491.262573 641.528564 1491.056519 641.604492 1490.870483 641.7146 L 1474.741577 650.577515 L 1468.961548 643.255493 L 1468.961548 630.540527 L 1474.741577 623.218506 L 1490.870483 632.026489 C 1491.406494 632.391602 1492.101563 632.418579 1492.666504 632.102539 C 1493.230469 631.785522 1493.567505 631.180542 1493.533569 630.533569 C 1493.505493 629.886597 1493.113525 629.315552 1492.521484 629.053589 L 1475.071533 619.530518 C 1474.769531 619.358521 1474.425537 619.283569 1474.080566 619.310547 Z M 1421.235474 624.539551 C 1428.281494 624.539551 1433.566528 629.824585 1433.566528 636.870605 C 1433.566528 643.916504 1428.281494 649.200562 1421.235474 649.200562 C 1414.189575 649.200562 1408.905518 643.916504 1408.905518 636.870605 C 1408.905518 629.824585 1414.189575 624.539551 1421.235474 624.539551 Z M 1456.465576 628.228516 L 1463.511475 628.228516 C 1464.413574 628.228516 1465.108521 628.923584 1465.108521 629.824585 L 1465.108521 643.916504 C 1465.108521 644.817505 1464.413574 645.512573 1463.511475 645.512573 L 1456.465576 645.512573 C 1455.564575 645.512573 1454.869507 644.817505 1454.869507 643.916504 L 1454.869507 629.824585 C 1454.869507 628.923584 1455.564575 628.228516 1456.465576 628.228516 Z M 1436.208496 631.696533 L 1451.016479 631.696533 L 1451.016479 642.044556 L 1436.208496 642.044556 C 1436.772583 640.414551 1437.089478 638.6875 1437.089478 636.870605 C 1437.089478 635.053589 1436.772583 633.326538 1436.208496 631.696533 Z M 1432.465576 647.989502 L 1453.988525 686.08252 L 1435.272583 686.08252 L 1417.4375 652.228516 C 1418.662476 652.531494 1419.921509 652.723511 1421.235474 652.723511 C 1425.632568 652.723511 1429.589478 650.893555 1432.465576 647.989502 Z M 1417.492554 689.825562 L 1470.778564 689.825562 C 1471.541504 689.825562 1472.209473 690.486572 1472.209473 691.476563 L 1472.209473 700.174561 L 1416.061523 700.174561 L 1416.061523 691.476563 C 1416.061523 690.486572 1416.729492 689.825562 1417.492554 689.825562 Z"/>
        </g>
        <g id="Ultralight-S">
            <path id="path15" fill="#000000" stroke="none" d="M 578.309631 627.090698 C 577.948669 627.133667 577.625671 627.321655 577.404663 627.607666 L 573.352661 632.693726 C 572.56665 631.707642 571.375671 631.055664 570.03363 631.055664 L 564.516663 631.055664 C 562.706665 631.055664 561.160645 632.240723 560.551636 633.857666 L 547.189636 633.857666 C 544.948669 630.581665 541.182678 628.426636 536.931641 628.426636 C 530.094666 628.426636 524.518677 634.002686 524.518677 640.839722 C 524.518677 645.090698 526.673645 648.856689 529.949646 651.097656 C 529.965637 651.108643 544.862671 679.372681 544.862671 679.372681 L 534.000671 679.372681 C 531.727661 679.372681 529.949646 681.333618 529.949646 683.59668 L 529.949646 691.871704 C 529.943665 692.259644 530.100647 692.636719 530.374634 692.911621 C 530.649658 693.186646 531.026672 693.342651 531.414673 693.337646 L 578.309631 693.337646 C 578.697632 693.342651 579.074646 693.186646 579.34967 692.911621 C 579.623657 692.636719 579.78064 692.259644 579.774658 691.871704 L 579.774658 683.59668 C 579.774658 681.333618 577.996643 679.372681 575.723633 679.372681 L 565.766663 679.372681 L 547.922668 647.822632 L 560.551636 647.822632 C 561.160645 649.438721 562.706665 650.623657 564.516663 650.623657 L 570.03363 650.623657 C 571.375671 650.623657 572.56665 649.97168 573.352661 648.985718 L 577.404663 654.071655 C 577.808655 654.578735 578.514648 654.723633 579.085632 654.416626 L 592.748657 646.959717 C 593.319641 646.65271 593.583679 645.984619 593.384644 645.370728 C 593.179688 644.751709 592.570679 644.373657 591.929688 644.460693 C 591.762634 644.487671 591.600647 644.546631 591.455627 644.63269 L 578.82666 651.571655 L 574.300659 645.839722 L 574.300659 635.88269 L 578.82666 630.150635 L 591.455627 637.046631 C 591.875671 637.332642 592.419678 637.353638 592.861633 637.105713 C 593.30365 636.858643 593.567688 636.383667 593.540649 635.877686 C 593.518677 635.371704 593.21167 634.923706 592.748657 634.719727 L 579.085632 627.262695 C 578.848633 627.127686 578.578674 627.068726 578.309631 627.090698 Z M 536.931641 631.184692 C 542.448669 631.184692 546.58667 635.322632 546.58667 640.839722 C 546.58667 646.356689 542.448669 650.494629 536.931641 650.494629 C 531.414673 650.494629 527.277649 646.356689 527.277649 640.839722 C 527.277649 635.322632 531.414673 631.184692 536.931641 631.184692 Z M 564.516663 634.072632 L 570.03363 634.072632 C 570.739685 634.072632 571.28363 634.616699 571.28363 635.322632 L 571.28363 646.356689 C 571.28363 647.062622 570.739685 647.606689 570.03363 647.606689 L 564.516663 647.606689 C 563.811646 647.606689 563.266663 647.062622 563.266663 646.356689 L 563.266663 635.322632 C 563.266663 634.616699 563.811646 634.072632 564.516663 634.072632 Z M 548.65564 636.78772 L 560.249634 636.78772 L 560.249634 644.891724 L 548.65564 644.891724 C 549.097656 643.614624 549.345642 642.261719 549.345642 640.839722 C 549.345642 639.417725 549.097656 638.064697 548.65564 636.78772 Z M 545.72467 649.546631 L 562.577637 679.372681 L 547.922668 679.372681 L 533.957642 652.864624 C 534.916626 653.101685 535.902649 653.252686 536.931641 653.252686 C 540.374634 653.252686 543.472656 651.819702 545.72467 649.546631 Z M 534.000671 682.303711 L 575.723633 682.303711 C 576.321655 682.303711 576.843628 682.820679 576.843628 683.59668 L 576.843628 690.406616 L 532.880676 690.406616 L 532.880676 683.59668 C 532.880676 682.820679 533.402649 682.303711 534.000671 682.303711 Z"/>
        </g>
    </g>
</svg>
